<?xml version="1.0" encoding="UTF-8"?>
<!DOCTYPE svg PUBLIC "-//W3C//DTD SVG 1.1//EN" "http://www.w3.org/Graphics/SVG/1.1/DTD/svg11.dtd">
<!-- Creator: CorelDRAW X7 -->
<svg xmlns="http://www.w3.org/2000/svg" xml:space="preserve" width="28.1006mm" height="6.9016mm" version="1.1" style="shape-rendering:geometricPrecision; text-rendering:geometricPrecision; image-rendering:optimizeQuality; fill-rule:evenodd; clip-rule:evenodd"
viewBox="0 0 4957 1218"
 xmlns:xlink="http://www.w3.org/1999/xlink">
 <defs>
  <style type="text/css">
   <![CDATA[
    .fil0 {fill:#ffffff}
    .fil1 {fill:#ffffff;fill-rule:nonzero}
   ]]>
  </style>
 </defs>
 <g id="Layer_x0020_1">
  <metadata id="CorelCorpID_0Corel-Layer"/>
  <g id="_2512369645648">
   <path class="fil0" d="M0 1218l0 -1218 452 260 -352 204 0 580 703 -408 0 -117 -603 350 0 -345 902 -524 0 1218 -453 -261 354 -205 0 -577 -704 408 0 116 604 -350 0 345 -903 524zm1003 -172l0 -179 -155 90 155 89zm-903 -696l0 -178 154 88 -154 90z"/>
   <path class="fil1" d="M1348 813l40 -89c33,27 71,40 113,40 43,0 65,-15 65,-46 0,-18 -7,-33 -20,-45 -13,-12 -38,-25 -76,-41 -83,-34 -124,-82 -124,-144 0,-41 16,-74 48,-97 31,-23 71,-34 120,-34 50,0 97,11 140,33l-32 86c-24,-20 -58,-31 -101,-31 -39,0 -59,16 -59,47 0,12 7,23 20,33 12,10 40,23 82,40 42,16 72,36 90,60 19,23 28,52 28,85 0,44 -17,79 -50,105 -32,25 -77,38 -134,38 -31,0 -57,-3 -76,-8 -19,-5 -44,-16 -74,-32z"/>
   <path id="1" class="fil1" d="M2184 639l-342 0c2,38 15,68 39,89 25,21 57,32 98,32 51,0 90,-13 116,-40l43 85c-39,32 -98,48 -175,48 -73,0 -131,-21 -173,-64 -43,-43 -64,-103 -64,-179 0,-75 23,-137 70,-183 46,-47 102,-70 167,-70 70,0 125,20 167,62 42,41 63,94 63,158 0,14 -3,34 -9,62zm-337 -84l234 0c-8,-70 -47,-105 -116,-105 -63,0 -103,35 -118,105z"/>
   <path id="2" class="fil1" d="M2562 844l0 -277c0,-41 -8,-70 -24,-89 -15,-19 -41,-28 -76,-28 -16,0 -34,4 -52,14 -19,9 -33,20 -44,34l0 346 -111 0 0 -478 80 0 21 44c30,-35 75,-53 134,-53 57,0 101,17 134,51 33,34 49,81 49,142l0 294 -111 0z"/>
   <path id="3" class="fil1" d="M2738 813l39 -89c34,27 71,40 113,40 43,0 65,-15 65,-46 0,-18 -6,-33 -20,-45 -13,-12 -38,-25 -76,-41 -82,-34 -123,-82 -123,-144 0,-41 15,-74 47,-97 32,-23 72,-34 121,-34 49,0 96,11 140,33l-32 86c-25,-20 -58,-31 -102,-31 -39,0 -58,16 -58,47 0,12 6,23 19,33 13,10 40,23 82,40 42,16 72,36 91,60 18,23 27,52 27,85 0,44 -16,79 -49,105 -33,25 -78,38 -134,38 -32,0 -58,-3 -77,-8 -19,-5 -43,-16 -73,-32z"/>
   <path id="4" class="fil1" d="M3573 639l-341 0c2,38 15,68 39,89 24,21 56,32 97,32 51,0 90,-13 116,-40l44 85c-40,32 -98,48 -176,48 -73,0 -130,-21 -173,-64 -42,-43 -63,-103 -63,-179 0,-75 23,-137 69,-183 47,-47 103,-70 168,-70 69,0 125,20 167,62 42,41 63,94 63,158 0,14 -4,34 -10,62zm-337 -84l234 0c-8,-70 -46,-105 -115,-105 -64,0 -103,35 -119,105z"/>
   <path id="5" class="fil1" d="M3965 844l0 -277c0,-41 -8,-70 -23,-89 -16,-19 -41,-28 -77,-28 -16,0 -33,4 -52,14 -19,9 -33,20 -43,34l0 346 -112 0 0 -478 80 0 21 44c30,-35 75,-53 134,-53 57,0 102,17 134,51 33,34 50,81 50,142l0 294 -112 0z"/>
   <path id="6" class="fil1" d="M4597 639l-342 0c2,38 15,68 39,89 24,21 57,32 98,32 51,0 89,-13 116,-40l43 85c-39,32 -98,48 -176,48 -72,0 -130,-21 -173,-64 -42,-43 -63,-103 -63,-179 0,-75 23,-137 70,-183 46,-47 102,-70 167,-70 70,0 125,20 167,62 42,41 63,94 63,158 0,14 -3,34 -9,62zm-337 -84l234 0c-8,-70 -47,-105 -116,-105 -64,0 -103,35 -118,105z"/>
   <path id="7" class="fil1" d="M4698 455l-56 0 0 -89 56 0 0 -97 111 -41 0 138 132 0 0 89 -132 0 0 210c0,34 6,58 17,73 10,14 29,21 56,21 27,0 52,-8 75,-22l0 102c-25,9 -62,14 -111,14 -47,0 -84,-14 -110,-40 -25,-27 -38,-66 -38,-116l0 -242z"/>
  </g>
 </g>
</svg>
